# xmcd
#
# Track frame offsets:
#  150
#  28474
#  50458
#  72261
#  90615
#  116156
#  139666
#  173341
#  198401
#  224394
#  257311
#
# Disc length: 3781 seconds
#
# Revision: 2
# Processed by: cddbd v1.5.1PL2 Copyright (c) Steve Scherf et al.
# Submitted via: Collectorz.com_Music_Collector 6.11
#
DISCID=9b0ec30b
DTITLE=DJ Rai - Deep Infusion - Compiled By DJ Rai
DYEAR=2004
DGENRE=Downtempo
TTITLE0=Broken Beatnicks - Broken Beatnicks - Homesick
TTITLE1=Dave Fish - Dave Fish - Simply
TTITLE2=Ecson Waldes - Ecson Waldes - Palm
TTITLE3=ZKA4T - ZKA4T - Lasenice
TTITLE4=Close Encounter - Close Encouter - Something Special
TTITLE5=ZKA4T - ZKA4T - Desine Moi Un Moutan
TTITLE6=Touchwood - Touchwood - Daylight Dream
TTITLE7=Rai - Rai - Deep Rotation
TTITLE8=Rai - Rai - Morning Dreams
TTITLE9=Boris Carloff - Boris Carloff
TTITLE10=Close Encounter - Close Encouter - Moonlight
EXTD=
EXTT0=
EXTT1=
EXTT2=
EXTT3=
EXTT4=
EXTT5=
EXTT6=
EXTT7=
EXTT8=
EXTT9=
EXTT10=
PLAYORDER=
